<svg width="12" height="12" viewBox="0 0 12 12" fill="none" xmlns="http://www.w3.org/2000/svg">
<path d="M11.9786 5.83536C11.9059 4.50849 11.147 3.56782 11.0924 2.62266C11.038 1.67751 11.2232 1.0483 10.938 0.941371C10.6472 0.83223 10.6654 2.14095 10.6654 2.63174C10.6654 3.12248 10.8289 3.90413 10.12 4.41309C9.41115 4.92199 8.79336 4.57745 8.41146 4.04953C7.79342 3.19524 7.17759 3.19524 6.86648 3.19524C6.43016 3.19524 5.99397 3.3588 5.99397 3.68604C5.99397 4.86751 7.77525 5.39463 7.77525 5.39463C7.75703 5.97622 7.13912 6.26708 6.9755 6.04892C6.81194 5.83082 6.6847 5.44911 5.99397 5.44911C5.30323 5.44911 5.17599 5.83082 5.01243 6.04892C4.84881 6.26708 4.2309 5.97622 4.21268 5.39463C4.21268 5.39463 5.99397 4.86751 5.99397 3.68604C5.99397 3.3588 5.55777 3.19524 5.12145 3.19524C4.81035 3.19524 4.19451 3.19524 3.57648 4.04953C3.19457 4.57745 2.57678 4.92199 1.86789 4.41309C1.15899 3.90413 1.32255 3.12248 1.32255 2.63174C1.32255 2.14095 1.34077 0.83223 1.04991 0.941371C0.764695 1.0483 0.949973 1.67751 0.895494 2.62266C0.840893 3.56782 0.0820558 4.50849 0.00935633 5.83536C-0.0633431 7.16224 0.249051 9.33064 2.33819 10.559C3.84918 11.4474 5.04881 10.8657 5.99397 10.8657C6.93912 10.8657 8.13875 11.4474 9.64974 10.559C11.7389 9.33064 12.0513 7.16224 11.9786 5.83536Z" fill="white"/>
</svg>
