<svg width="12" height="12" viewBox="0 0 12 12" fill="none" xmlns="http://www.w3.org/2000/svg">
<path d="M11.9786 5.83536C11.9059 4.50849 11.147 3.56782 11.0924 2.62266C11.038 1.67751 11.2232 1.0483 10.938 0.941371C10.6472 0.83223 10.6654 2.14095 10.6654 2.63174C10.6654 3.12248 10.8289 3.90413 10.12 4.41309C9.41114 4.92199 8.79335 4.57745 8.41145 4.04953C7.79341 3.19524 7.17758 3.19524 6.86647 3.19524C6.43015 3.19524 5.99396 3.3588 5.99396 3.68604C5.99396 4.86751 7.77525 5.39463 7.77525 5.39463C7.75703 5.97622 7.13911 6.26708 6.97549 6.04892C6.81194 5.83082 6.68469 5.44911 5.99396 5.44911C5.30322 5.44911 5.17598 5.83082 5.01242 6.04892C4.8488 6.26708 4.23089 5.97622 4.21267 5.39463C4.21267 5.39463 5.99396 4.86751 5.99396 3.68604C5.99396 3.3588 5.55776 3.19524 5.12144 3.19524C4.81034 3.19524 4.19451 3.19524 3.57647 4.04953C3.19457 4.57745 2.57678 4.92199 1.86788 4.41309C1.15898 3.90413 1.32254 3.12248 1.32254 2.63174C1.32254 2.14095 1.34076 0.83223 1.0499 0.941371C0.764687 1.0483 0.949965 1.67751 0.895487 2.62266C0.840885 3.56782 0.0820482 4.50849 0.0093487 5.83536C-0.0633508 7.16224 0.249043 9.33064 2.33819 10.559C3.84917 11.4474 5.0488 10.8657 5.99396 10.8657C6.93911 10.8657 8.13875 11.4474 9.64973 10.559C11.7389 9.33064 12.0513 7.16224 11.9786 5.83536Z" fill="#333333"/>
</svg>
