<?xml version="1.0" encoding="UTF-8" standalone="no"?>
<!DOCTYPE svg PUBLIC "-//W3C//DTD SVG 1.1//EN" "http://www.w3.org/Graphics/SVG/1.1/DTD/svg11.dtd">
<svg width="100%" height="100%" viewBox="0 0 815 688" version="1.1" xmlns="http://www.w3.org/2000/svg" xmlns:xlink="http://www.w3.org/1999/xlink" xml:space="preserve" xmlns:serif="http://www.serif.com/" style="fill-rule:evenodd;clip-rule:evenodd;stroke-linejoin:round;stroke-miterlimit:1.41421;">
    <g transform="matrix(1,0,0,1,-1440.94,-1498.94)">
        <g transform="matrix(4.16667,0,0,4.16667,-792.07,-761.967)">
            <path d="M731.174,622.494C729.989,600.866 717.62,585.533 716.73,570.127C715.842,554.721 718.862,544.465 714.213,542.722C709.473,540.943 709.769,562.275 709.769,570.275C709.769,578.274 712.435,591.015 700.88,599.311C689.325,607.606 679.255,601.99 673.03,593.385C662.956,579.46 652.918,579.46 647.847,579.46C640.735,579.46 633.625,582.126 633.625,587.46C633.625,606.718 662.66,615.31 662.66,615.31C662.363,624.79 652.291,629.531 649.624,625.975C646.958,622.42 644.884,616.198 633.625,616.198C622.366,616.198 620.292,622.42 617.626,625.975C614.959,629.531 604.887,624.79 604.59,615.31C604.59,615.31 633.625,606.718 633.625,587.46C633.625,582.126 626.515,579.46 619.403,579.46C614.332,579.46 604.294,579.46 594.22,593.385C587.995,601.99 577.925,607.606 566.37,599.311C554.815,591.015 557.481,578.274 557.481,570.275C557.481,562.275 557.778,540.943 553.037,542.722C548.388,544.465 551.408,554.721 550.52,570.127C549.63,585.533 537.261,600.866 536.076,622.494C534.891,644.122 539.983,679.467 574.036,699.489C598.665,713.97 618.219,704.488 633.625,704.488C649.031,704.488 668.585,713.97 693.214,699.489C727.267,679.467 732.359,644.122 731.174,622.494Z" style="fill:rgb(41,45,48);fill-rule:nonzero;"/>
        </g>
    </g>
</svg>
