<svg width="90" height="90" viewBox="0 0 90 90" fill="none" xmlns="http://www.w3.org/2000/svg">
<path d="M89.8392 43.7652C89.294 33.8137 83.6027 26.7586 83.1932 19.67C82.7846 12.5813 84.1742 7.86228 82.0351 7.06028C79.8541 6.24172 79.9903 16.0571 79.9903 19.7381C79.9903 23.4186 81.217 29.281 75.9003 33.0982C70.5835 36.9149 65.9501 34.3309 63.0858 30.3715C58.4506 23.9643 53.8318 23.9643 51.4985 23.9643C48.2261 23.9643 44.9547 25.191 44.9547 27.6453C44.9547 36.5063 58.3143 40.4597 58.3143 40.4597C58.1777 44.8217 53.5433 47.0031 52.3162 45.3669C51.0895 43.7312 50.1352 40.8683 44.9547 40.8683C39.7741 40.8683 38.8198 43.7312 37.5931 45.3669C36.366 47.0031 31.7317 44.8217 31.595 40.4597C31.595 40.4597 44.9547 36.5063 44.9547 27.6453C44.9547 25.191 41.6832 23.9643 38.4108 23.9643C36.0775 23.9643 31.4588 23.9643 26.8235 30.3715C23.9592 34.3309 19.3258 36.9149 14.0091 33.0982C8.69236 29.281 9.91906 23.4186 9.91906 19.7381C9.91906 16.0571 10.0557 6.24172 7.87426 7.06028C5.73515 7.86228 7.12474 12.5813 6.71615 19.67C6.30664 26.7586 0.615361 33.8137 0.0701152 43.7652C-0.475131 53.7168 1.86782 69.9798 17.5364 79.1924C28.8688 85.8555 37.866 81.4925 44.9547 81.4925C52.0433 81.4925 61.0406 85.8555 72.3729 79.1924C88.0415 69.9798 90.3845 53.7168 89.8392 43.7652Z" fill="white"/>
</svg>
