<svg width="12" height="12" viewBox="0 0 12 12" fill="none" xmlns="http://www.w3.org/2000/svg">
<path d="M8.5 0.5C7.553 0.5 6.657 0.88 6 1.5515C5.343 0.88 4.447 0.5 3.5 0.5C1.57 0.5 0 2.07 0 4C0 4.8715 0.3515 5.7235 1.016 6.465C2.1595 7.74 5.7865 11.3895 5.823 11.426C5.87 11.473 5.9335 11.4995 6 11.4995C6.0665 11.4995 6.1305 11.473 6.177 11.426C6.2135 11.3895 9.8405 7.74 10.984 6.4645C11.6485 5.7235 12 4.871 12 3.9995C12 2.0705 10.43 0.5 8.5 0.5ZM3.5 2C2.397 2 1.5 2.897 1.5 4C1.5 4.138 1.388 4.25 1.25 4.25C1.112 4.25 1 4.138 1 4C1 2.6215 2.1215 1.5 3.5 1.5C3.638 1.5 3.75 1.612 3.75 1.75C3.75 1.888 3.638 2 3.5 2Z" fill="#FF0000"/>
</svg>
